<svg width="233" height="88" viewBox="0 0 233 88" fill="none" xmlns="http://www.w3.org/2000/svg">
<path d="M44.6222 14.4836C46.837 10.525 53.409 13.9216 51.3839 17.9782C45.6532 30.0127 37.6823 41.1352 35.0919 53.1123C35.5252 52.6896 35.9589 52.2536 36.3901 51.8129C38.9173 49.216 41.3937 46.405 43.8351 43.589C46.2774 40.7707 48.7085 37.8772 51.1687 35.0363C51.8175 34.288 52.4528 33.5633 53.0862 32.8719C53.2588 32.6829 53.45 32.4759 53.6185 32.2988C53.704 32.2088 53.7875 32.1222 53.869 32.0389C53.9613 31.944 54.0825 31.8206 54.1852 31.72C54.4137 31.504 54.5262 31.3682 55.0237 30.9865C55.1419 30.9008 55.2749 30.8086 55.475 30.7018C55.6604 30.6303 56.0749 30.2946 57.1353 30.368C57.6601 30.4096 58.3861 30.7146 58.8295 31.209C59.2762 31.6595 59.4671 32.3365 59.4717 32.3835C59.6311 33.1023 59.5309 33.4119 59.4908 33.6723C59.4645 33.799 59.4357 33.9042 59.4064 34.001C59.3783 34.0942 59.3407 34.201 59.3329 34.2209C58.3159 36.5257 57.4067 37.773 56.3352 39.5647C51.4371 47.5161 46.5606 55.5088 43.5612 64.1122C42.4624 67.3136 41.6725 70.6002 41.361 73.9413C41.3262 74.3173 41.149 74.6694 40.8601 74.9195C40.5713 75.1696 40.1958 75.2973 39.8148 75.2745C39.4337 75.2517 39.0765 75.0802 38.8203 74.7975C38.5641 74.5149 38.4311 74.1442 38.4423 73.7668C38.5535 70.1426 39.1946 66.5511 40.1649 63.0838C41.1705 59.5656 42.4509 56.1747 43.9007 52.8723C42.9736 53.9608 42.0276 55.0419 41.055 56.1108C39.7178 57.5637 38.3989 58.9666 36.7363 60.3755C36.2687 60.7613 35.9316 61.0353 35.3182 61.4473C35.0323 61.6359 34.7761 61.7943 34.4298 61.9755C34.0278 62.1825 33.595 62.3714 33.0625 62.5081C32.4014 62.6634 31.4274 62.8294 30.1904 62.3044C29.5674 62.0336 29.0015 61.5702 28.6237 61.0728C28.4146 60.7968 28.3268 60.6394 28.2246 60.4496C28.1279 60.2653 28.0493 60.0839 27.9844 59.9076C27.8549 59.5547 27.7786 59.223 27.7296 58.9077C27.687 58.6229 27.675 58.4688 27.6623 58.2561C27.6409 57.8542 27.6524 57.4651 27.6848 57.0687C27.9974 52.963 28.8286 49.0916 29.9938 45.3865C28.6219 46.7653 27.2156 48.1159 25.7607 49.4395C24.4275 50.6474 23.0791 51.8201 21.5844 52.9759C20.8133 53.5554 20.1355 54.1011 18.909 54.7812C18.8278 54.8241 18.7658 54.8558 18.659 54.9084C18.5409 54.9665 18.4167 55.0238 18.2804 55.0805C18.1439 55.1371 17.9955 55.1933 17.8231 55.2475C17.78 55.261 17.7353 55.2744 17.6888 55.2876C17.6369 55.302 17.6137 55.3087 17.5097 55.3346C17.3343 55.3771 17.1334 55.4163 16.8887 55.4395C16.3816 55.4636 15.7863 55.5396 14.7138 55.018C13.4271 54.4065 12.7467 52.8168 12.7469 52.0338C12.6945 51.1002 12.8862 50.6359 13.0122 50.256C13.0997 50.0235 13.1911 49.8266 13.2861 49.6391C13.3795 49.4544 13.4892 49.2614 13.5509 49.16C13.697 48.9164 13.8547 48.6742 14.0286 48.4205C18.0025 42.8913 20.9695 36.9226 22.9949 30.326C24.0035 27.0883 24.8105 23.7588 25.4807 20.3648C25.5518 20.004 25.7449 19.6702 26.0404 19.4393C26.3357 19.2084 26.7059 19.0989 27.0744 19.1353C27.4429 19.1717 27.7838 19.3516 28.027 19.6357C28.2704 19.9199 28.3928 20.2848 28.3902 20.6524C28.3563 24.2079 28.1096 27.7752 27.5575 31.3482C27.2138 33.6876 26.703 36.0349 26.0376 38.3539C26.5449 37.8165 27.0505 37.2766 27.5541 36.7343C33.9552 29.7819 40.0701 22.3758 44.6222 14.4836Z" fill="#FF1447"/>
<path d="M69.6842 56.618V31.1297H75.9209L83.0693 44L90.1448 31.1297H96.1991V56.618H91.6402V36.8258L83.9447 50.5974H82.0117L74.2432 36.8258V56.618H69.6842Z" fill="#FDFDFD"/>
<path d="M107.522 56.8703C105.529 56.8703 103.827 56.4617 102.416 55.6446C101.03 54.8274 99.9727 53.6978 99.2433 52.2557C98.5382 50.7897 98.1856 49.0953 98.1856 47.1725C98.1856 45.2498 98.5503 43.5554 99.2797 42.0893C100.033 40.5992 101.103 39.4335 102.489 38.5923C103.899 37.7511 105.589 37.3305 107.559 37.3305C109.018 37.3305 110.294 37.5949 111.388 38.1237C112.482 38.6284 113.394 39.3254 114.124 40.2146C114.877 41.1039 115.437 42.1133 115.801 43.2429C116.166 44.3725 116.336 45.5622 116.312 46.812C116.288 47.1004 116.263 47.3888 116.239 47.6772C116.215 47.9416 116.178 48.23 116.13 48.5425H102.635C102.708 49.3837 102.927 50.1528 103.292 50.8497C103.681 51.5467 104.216 52.0995 104.896 52.5081C105.601 52.9167 106.477 53.121 107.522 53.121C108.13 53.121 108.714 53.0489 109.273 52.9047C109.832 52.7364 110.319 52.4961 110.732 52.1836C111.17 51.8712 111.461 51.4746 111.607 50.994H116.057C115.741 52.3639 115.157 53.4815 114.306 54.3467C113.455 55.212 112.434 55.8489 111.242 56.2574C110.075 56.666 108.835 56.8703 107.522 56.8703ZM102.708 45.2618H111.972C111.972 44.4687 111.79 43.7476 111.425 43.0987C111.06 42.4498 110.537 41.9451 109.857 41.5846C109.2 41.2 108.398 41.0078 107.449 41.0078C106.428 41.0078 105.577 41.212 104.896 41.6206C104.216 42.0292 103.693 42.558 103.328 43.2069C102.963 43.8558 102.757 44.5408 102.708 45.2618Z" fill="#FDFDFD"/>
<path d="M126.339 56.8703C124.369 56.8703 122.667 56.4737 121.233 55.6806C119.822 54.8875 118.728 53.7579 117.95 52.2918C117.197 50.8257 116.82 49.1073 116.82 47.1365C116.82 45.1416 117.209 43.4232 117.987 41.9811C118.765 40.5151 119.859 39.3734 121.269 38.5563C122.679 37.7391 124.369 37.3305 126.339 37.3305C128.284 37.3305 129.962 37.7391 131.372 38.5563C132.782 39.3734 133.864 40.5271 134.618 42.0172C135.372 43.4833 135.748 45.2137 135.748 47.2086C135.748 49.1553 135.372 50.8618 134.618 52.3279C133.888 53.7699 132.819 54.8875 131.408 55.6806C129.998 56.4737 128.308 56.8703 126.339 56.8703ZM126.302 52.8686C127.518 52.8686 128.491 52.6042 129.22 52.0755C129.974 51.5467 130.521 50.8497 130.861 49.9845C131.202 49.1193 131.372 48.182 131.372 47.1725C131.372 46.1631 131.202 45.2137 130.861 44.3245C130.521 43.4352 129.974 42.7262 129.22 42.1974C128.491 41.6447 127.518 41.3683 126.302 41.3683C125.087 41.3683 124.102 41.6447 123.348 42.1974C122.594 42.7262 122.047 43.4352 121.707 44.3245C121.366 45.1897 121.196 46.139 121.196 47.1725C121.196 48.182 121.366 49.1313 121.707 50.0206C122.072 50.8858 122.619 51.5828 123.348 52.1115C124.102 52.6163 125.087 52.8686 126.302 52.8686Z" fill="#FDFDFD"/>
<path d="M141.051 56.618L135.033 37.6189H139.957L143.823 51.7871L147.944 37.6189H153.196L157.317 51.7871L161.147 37.6189H165.997L159.979 56.618H154.655L150.497 42.9185L146.376 56.618H141.051Z" fill="#FDFDFD"/>
<path d="M173.878 56.8703C171.933 56.8703 170.328 56.4377 169.064 55.5725C167.799 54.6832 166.851 53.5055 166.219 52.0394C165.611 50.5734 165.307 48.939 165.307 47.1365C165.307 45.2618 165.635 43.5914 166.292 42.1253C166.948 40.6352 167.933 39.4696 169.246 38.6284C170.559 37.7631 172.2 37.3305 174.17 37.3305C174.899 37.3305 175.604 37.4146 176.285 37.5829C176.99 37.7271 177.647 37.9674 178.255 38.3039C178.887 38.6164 179.409 39.0369 179.823 39.5657V31.1297H184.272V56.618H179.969L179.896 54.2386C179.434 54.8394 178.887 55.3321 178.255 55.7167C177.647 56.1012 176.966 56.3896 176.212 56.5819C175.458 56.7742 174.68 56.8703 173.878 56.8703ZM174.717 52.9047C175.884 52.9047 176.844 52.6403 177.598 52.1115C178.352 51.5588 178.911 50.8377 179.276 49.9485C179.665 49.0352 179.859 48.0738 179.859 47.0644C179.859 46.0069 179.665 45.0455 179.276 44.1803C178.911 43.315 178.352 42.618 177.598 42.0893C176.844 41.5605 175.884 41.2962 174.717 41.2962C173.477 41.2962 172.492 41.5726 171.763 42.1253C171.057 42.6781 170.535 43.4112 170.194 44.3245C169.878 45.2137 169.72 46.1751 169.72 47.2086C169.72 47.9777 169.805 48.7107 169.975 49.4077C170.17 50.0807 170.462 50.6815 170.851 51.2103C171.24 51.739 171.75 52.1596 172.383 52.4721C173.015 52.7605 173.793 52.9047 174.717 52.9047Z" fill="#FDFDFD"/>
<path d="M194.881 56.8703C192.887 56.8703 191.185 56.4617 189.775 55.6446C188.389 54.8274 187.331 53.6978 186.602 52.2557C185.896 50.7897 185.544 49.0953 185.544 47.1725C185.544 45.2498 185.909 43.5554 186.638 42.0893C187.392 40.5992 188.462 39.4335 189.848 38.5923C191.258 37.7511 192.948 37.3305 194.917 37.3305C196.376 37.3305 197.652 37.5949 198.747 38.1237C199.841 38.6284 200.753 39.3254 201.482 40.2146C202.236 41.1039 202.795 42.1133 203.16 43.2429C203.524 44.3725 203.695 45.5622 203.67 46.812C203.646 47.1004 203.622 47.3888 203.597 47.6772C203.573 47.9416 203.537 48.23 203.488 48.5425H189.993C190.066 49.3837 190.285 50.1528 190.65 50.8497C191.039 51.5467 191.574 52.0995 192.255 52.5081C192.96 52.9167 193.835 53.121 194.881 53.121C195.489 53.121 196.072 53.0489 196.631 52.9047C197.191 52.7364 197.677 52.4961 198.09 52.1836C198.528 51.8712 198.82 51.4746 198.965 50.994H203.415C203.099 52.3639 202.515 53.4815 201.664 54.3467C200.813 55.212 199.792 55.8489 198.601 56.2574C197.434 56.666 196.194 56.8703 194.881 56.8703ZM190.066 45.2618H199.33C199.33 44.4687 199.148 43.7476 198.783 43.0987C198.418 42.4498 197.896 41.9451 197.215 41.5846C196.558 41.2 195.756 41.0078 194.808 41.0078C193.786 41.0078 192.935 41.212 192.255 41.6206C191.574 42.0292 191.051 42.558 190.686 43.2069C190.322 43.8558 190.115 44.5408 190.066 45.2618Z" fill="#FDFDFD"/>
<path d="M212.275 56.8703C211.351 56.8703 210.427 56.7742 209.503 56.5819C208.603 56.3896 207.752 56.0772 206.95 55.6446C206.147 55.1879 205.479 54.575 204.944 53.806C204.409 53.0369 204.056 52.0755 203.886 50.9219H208.372C208.567 51.4506 208.871 51.8832 209.284 52.2197C209.722 52.5321 210.22 52.7725 210.779 52.9407C211.363 53.0849 211.934 53.157 212.493 53.157C212.834 53.157 213.199 53.133 213.588 53.0849C214.001 53.0369 214.378 52.9407 214.718 52.7965C215.083 52.6523 215.375 52.448 215.594 52.1836C215.812 51.8952 215.922 51.5227 215.922 51.0661C215.922 50.6334 215.8 50.297 215.557 50.0566C215.314 49.7922 214.986 49.588 214.572 49.4437C214.159 49.2755 213.661 49.1433 213.077 49.0472C212.032 48.8309 210.913 48.6026 209.722 48.3622C208.53 48.0978 207.497 47.6893 206.622 47.1365C206.257 46.9202 205.941 46.6678 205.673 46.3794C205.406 46.091 205.175 45.7785 204.98 45.4421C204.81 45.0815 204.676 44.697 204.579 44.2884C204.506 43.8798 204.47 43.4352 204.47 42.9545C204.47 41.9451 204.676 41.0919 205.09 40.3949C205.527 39.6739 206.099 39.097 206.804 38.6644C207.533 38.2078 208.36 37.8713 209.284 37.655C210.208 37.4387 211.156 37.3305 212.129 37.3305C213.442 37.3305 214.633 37.5348 215.703 37.9434C216.773 38.352 217.66 38.9769 218.365 39.8181C219.095 40.6593 219.533 41.7288 219.678 43.0266H215.448C215.326 42.4258 214.949 41.9451 214.317 41.5846C213.709 41.2241 212.931 41.0438 211.983 41.0438C211.642 41.0438 211.29 41.0799 210.925 41.152C210.56 41.2 210.208 41.2962 209.868 41.4404C209.551 41.5605 209.284 41.7528 209.065 42.0172C208.871 42.2816 208.773 42.606 208.773 42.9906C208.773 43.3511 208.858 43.6635 209.029 43.9279C209.223 44.1923 209.503 44.4206 209.868 44.6129C210.257 44.7811 210.706 44.9253 211.217 45.0455C212.044 45.2137 212.907 45.382 213.806 45.5502C214.706 45.7185 215.484 45.8867 216.141 46.0549C216.919 46.2712 217.624 46.5837 218.256 46.9923C218.888 47.3768 219.374 47.8935 219.715 48.5425C220.08 49.1674 220.262 49.9725 220.262 50.9579C220.262 52.1115 220.019 53.0729 219.533 53.842C219.071 54.6111 218.451 55.212 217.672 55.6446C216.894 56.0772 216.031 56.3896 215.083 56.5819C214.135 56.7742 213.199 56.8703 212.275 56.8703Z" fill="#FDFDFD"/>
</svg>
