<svg preserveAspectRatio="none" width="100%" height="100%" overflow="visible" style="display: block;" viewBox="0 0 18 15" fill="none" xmlns="http://www.w3.org/2000/svg">
<path id="vector" d="M0.271863 6.9773C2.11332 5.95672 4.16887 5.10488 6.08948 4.24871C9.39368 2.84638 12.711 1.46834 16.0618 0.185413C16.7137 -0.0331731 17.8851 -0.246911 18 0.725187C17.9371 2.10124 17.6783 3.46923 17.5009 4.83723C17.0505 7.84557 16.5298 10.8436 16.0221 13.842C15.8472 14.8408 14.6038 15.3578 13.8081 14.7187C11.8961 13.4192 9.96929 12.1322 8.08162 10.8025C7.46328 10.1703 8.03668 9.26242 8.58892 8.81096C10.1638 7.24933 11.8339 5.92255 13.3264 4.28021C13.7291 3.30199 12.5395 4.1264 12.1471 4.37903C9.99112 5.87396 7.88791 7.46016 5.61484 8.77399C4.45376 9.4171 3.10049 8.86752 1.93994 8.50868C0.899372 8.07516 -0.625472 7.6384 0.271758 6.97743L0.271863 6.9773Z" fill="var(--fill-0, #FDFDFD)"/>
</svg>
