<svg preserveAspectRatio="none" width="100%" height="100%" overflow="visible" style="display: block;" viewBox="0 0 18 18" fill="none" xmlns="http://www.w3.org/2000/svg">
<path id="vector" fill-rule="evenodd" clip-rule="evenodd" d="M1.2653 1.2653C0 2.5306 0 4.56707 0 8.64V9.36C0 13.4329 0 15.4694 1.2653 16.7347C2.5306 18 4.56707 18 8.64 18H9.36C13.4329 18 15.4694 18 16.7347 16.7347C18 15.4694 18 13.4329 18 9.36V8.64C18 4.56707 18 2.5306 16.7347 1.2653C15.4694 0 13.4329 0 9.36 0H8.64C4.56707 0 2.5306 0 1.2653 1.2653ZM3.03754 5.47504C3.13502 10.155 5.47501 12.9675 9.57751 12.9675H9.81005V10.29C11.3176 10.44 12.4575 11.5425 12.915 12.9675H15.045C14.46 10.8375 12.9225 9.66002 11.9625 9.21002C12.9225 8.65503 14.2725 7.30503 14.595 5.47504H12.6599C12.2399 6.96004 10.995 8.31002 9.81005 8.43752V5.47504H7.87498V10.665C6.67499 10.365 5.16002 8.91004 5.09252 5.47504H3.03754Z" fill="var(--fill-0, white)"/>
</svg>
