<svg preserveAspectRatio="none" width="100%" height="100%" overflow="visible" style="display: block;" viewBox="0 0 24 24" fill="none" xmlns="http://www.w3.org/2000/svg">
<path id="vector" d="M11.9999 7.45469C13.0233 7.45469 13.9675 7.79308 14.7272 8.36378C14.7272 7.86171 15.1342 7.4547 15.6363 7.45469C16.1384 7.45469 16.5454 7.86171 16.5454 8.36378V12.9092C16.5454 13.3915 16.7371 13.8538 17.0781 14.1948C17.4191 14.5357 17.8814 14.7274 18.3636 14.7274C18.8458 14.7274 19.3082 14.5357 19.6491 14.1948C19.9901 13.8538 20.1818 13.3915 20.1818 12.9092V12.0002C20.1818 10.1572 19.5596 8.36812 18.416 6.92291C17.2722 5.47765 15.6732 4.46107 13.8794 4.0376C12.0856 3.61422 10.2015 3.80869 8.5322 4.58981C6.86299 5.37092 5.50611 6.69238 4.68185 8.3407C3.85758 9.98924 3.61443 11.8685 3.99115 13.6727C4.36792 15.4768 5.34254 17.1012 6.75751 18.2821C8.17253 19.463 9.94533 20.1314 11.7877 20.1793C13.6301 20.2271 15.435 19.6516 16.9094 18.5458C17.3111 18.2447 17.8804 18.3262 18.1816 18.7278C18.4827 19.1294 18.4012 19.6988 17.9996 20C16.1975 21.3515 13.9917 22.0552 11.7398 21.9966C9.48804 21.938 7.32213 21.121 5.59272 19.6777C3.8632 18.2343 2.67155 16.249 2.21113 14.0438C1.75077 11.8389 2.04814 9.54312 3.05542 7.52838C4.06283 5.51355 5.72128 3.89772 7.7616 2.94297C9.80198 1.98822 12.1051 1.7498 14.2975 2.26736C16.49 2.78492 18.4438 4.0281 19.8418 5.79453C21.2396 7.56091 22 9.74759 22 12.0002V12.9092C22 13.8737 21.6166 14.7983 20.9347 15.4803C20.2527 16.1622 19.328 16.5456 18.3636 16.5456C17.3992 16.5456 16.4745 16.1622 15.7926 15.4803C15.6479 15.3356 15.5171 15.1797 15.4002 15.0151C14.5675 15.9535 13.3532 16.5456 11.9999 16.5456C9.48951 16.5456 7.45442 14.5105 7.45442 12.0002C7.45442 9.48977 9.48951 7.45469 11.9999 7.45469ZM9.27262 12.0002C9.27262 13.5064 10.4937 14.7274 11.9999 14.7274C13.5062 14.7274 14.7272 13.5064 14.7272 12.0002C14.7272 10.4939 13.5062 9.27288 11.9999 9.27288C10.4937 9.27288 9.27262 10.4939 9.27262 12.0002Z" fill="var(--fill-0, #FDFDFD)"/>
</svg>
