<svg width="48" height="48" viewBox="0 0 48 48" fill="none" xmlns="http://www.w3.org/2000/svg">
<path d="M4.54373 23.9546C8.22663 21.9134 12.3377 20.2098 16.179 18.4974C22.7874 15.6928 29.422 12.9367 36.1236 10.3708C37.4275 9.93365 39.7703 9.50618 40 11.4504C39.8742 14.2025 39.3567 16.9385 39.0018 19.6744C38.1009 25.6911 37.0597 31.6872 36.0443 37.6841C35.6944 39.6817 33.2075 40.7157 31.6163 39.4374C27.7921 36.8383 23.9386 34.2644 20.1632 31.605C18.9266 30.3407 20.0734 28.5248 21.1778 27.6219C24.3275 24.4987 27.6678 21.8451 30.6529 18.5604C31.4581 16.604 29.0789 18.2528 28.2942 18.7581C23.9822 21.7479 19.7758 24.9203 15.2297 27.548C12.9075 28.8342 10.201 27.735 7.87987 27.0174C5.79874 26.1503 2.74906 25.2768 4.54352 23.9549L4.54373 23.9546Z" fill="#7A7A7A"/>
</svg>
