<svg width="48" height="48" viewBox="0 0 48 48" fill="none" xmlns="http://www.w3.org/2000/svg">
<path d="M34.9189 17.6226C36.5111 17.6226 37.9441 17.9055 39.2188 18.4692C40.4957 19.0307 41.5472 19.9216 42.375 21.1372C43.1299 22.2091 43.6148 23.4529 43.8359 24.8657C43.9653 25.6916 44.0163 26.8892 43.9951 28.4458H30.6768C30.7567 30.2532 31.3868 31.5232 32.5908 32.2495C33.3199 32.7019 34.1975 32.9292 35.2275 32.9292C36.3117 32.9292 37.1983 32.6528 37.8779 32.103C38.2518 31.8038 38.5811 31.3907 38.8633 30.8618H43.7441C43.6147 31.9291 43.0216 33.0172 41.9727 34.1216C40.3357 35.8734 38.0426 36.7505 35.0957 36.7505C32.6616 36.7505 30.5138 36.013 28.6582 34.5327C26.7933 33.0547 25.8672 30.6457 25.8672 27.314C25.8672 24.1887 26.7069 21.7918 28.3838 20.1235C30.0653 18.4601 32.2404 17.6227 34.9189 17.6226ZM15.9443 11.7495C18.9592 11.7936 21.0923 12.6593 22.3506 14.3481C23.1055 15.3852 23.4843 16.6244 23.4844 18.0698C23.4844 19.557 23.106 20.7567 22.3418 21.6616C21.9137 22.1674 21.2853 22.6317 20.4551 23.0493C21.7156 23.5041 22.6657 24.2213 23.3125 25.2026C23.9522 26.1817 24.2744 27.3745 24.2744 28.7759C24.2744 30.2213 23.908 31.5184 23.1719 32.6646C22.7062 33.4233 22.1227 34.0638 21.4219 34.5835C20.634 35.1798 19.7047 35.5854 18.6299 35.8081C17.5552 36.0285 16.3934 36.1352 15.1377 36.1353H3.99902V11.7495H15.9443ZM8.92578 25.3989V31.9019H14.9277C16.0001 31.9019 16.8376 31.7585 17.4326 31.4731C18.5168 30.9395 19.0575 29.9279 19.0576 28.4292C19.0575 27.1579 18.5355 26.2876 17.4844 25.812C16.8964 25.5476 16.0709 25.4082 15.0127 25.3989H8.92578ZM34.9219 21.5122C33.699 21.5122 32.7433 21.8558 32.0684 22.5425C31.3936 23.2292 30.968 24.1598 30.7939 25.3335H39.0322C38.9452 24.0809 38.5178 23.1339 37.7607 22.4819C36.9941 21.8348 36.0505 21.5123 34.9219 21.5122ZM8.92578 15.9839V21.3647H14.9375C16.0075 21.3647 16.8801 21.163 17.5527 20.7593C18.2206 20.3555 18.5566 19.6405 18.5566 18.6196C18.5565 17.4807 18.1146 16.7313 17.2305 16.3647C16.4638 16.1119 15.4895 15.9839 14.3066 15.9839H8.92578ZM40.1523 15.9204H29.5596V12.8853H40.1523V15.9204Z" fill="#7A7A7A"/>
</svg>
