<svg width="24" height="24" viewBox="0 0 24 24" fill="none" xmlns="http://www.w3.org/2000/svg">
<path d="M3 20V4C3 3.20435 3.3163 2.44152 3.87891 1.87891C4.44152 1.3163 5.20435 1 6 1H15L15.0986 1.00488C15.3276 1.02757 15.5429 1.12883 15.707 1.29297L20.707 6.29297C20.8946 6.4805 21 6.73478 21 7V20C21 20.7957 20.6837 21.5585 20.1211 22.1211C19.5585 22.6837 18.7957 23 18 23H6C5.20435 23 4.44151 22.6837 3.87891 22.1211C3.3163 21.5585 3 20.7957 3 20ZM16 17C16.5523 17 17 17.4477 17 18C17 18.5523 16.5523 19 16 19H12C11.4477 19 11 18.5523 11 18C11 17.4477 11.4477 17 12 17H16ZM7.29297 11.293C7.68349 10.9024 8.31651 10.9024 8.70703 11.293L10.707 13.293C11.0976 13.6835 11.0976 14.3165 10.707 14.707L8.70703 16.707C8.31651 17.0976 7.68349 17.0976 7.29297 16.707C6.90244 16.3165 6.90244 15.6835 7.29297 15.293L8.58594 14L7.29297 12.707C6.90244 12.3165 6.90244 11.6835 7.29297 11.293ZM15 6C15 6.26522 15.1054 6.51949 15.293 6.70703C15.4805 6.89457 15.7348 7 16 7H18.5859L15 3.41406V6ZM5 20C5 20.2652 5.10543 20.5195 5.29297 20.707C5.48051 20.8946 5.73478 21 6 21H18C18.2652 21 18.5195 20.8946 18.707 20.707C18.8946 20.5195 19 20.2652 19 20V9H16C15.2044 9 14.4415 8.6837 13.8789 8.12109C13.3163 7.55849 13 6.79565 13 6V3H6C5.73478 3 5.4805 3.10543 5.29297 3.29297C5.10543 3.4805 5 3.73478 5 4V20Z" fill="#FDFDFD"/>
</svg>
