<svg preserveAspectRatio="none" width="100%" height="100%" overflow="visible" style="display: block;" viewBox="0 0 18 22" fill="none" xmlns="http://www.w3.org/2000/svg">
<path id="vector" d="M10 16C10.5523 16 11 16.4477 11 17C11 17.5523 10.5523 18 10 18H5C4.44772 18 4 17.5523 4 17C4 16.4477 4.44772 16 5 16H10ZM13 12C13.5523 12 14 12.4477 14 13C14 13.5523 13.5523 14 13 14H5C4.44772 14 4 13.5523 4 13C4 12.4477 4.44772 12 5 12H13ZM11 8C11.5523 8 12 8.44772 12 9C12 9.55228 11.5523 10 11 10H5C4.44772 10 4 9.55228 4 9C4 8.44772 4.44772 8 5 8H11ZM12 5V4H10V5C10 5.55228 9.55228 6 9 6C8.44772 6 8 5.55228 8 5V4H6V5C6 5.55228 5.55228 6 5 6C4.44772 6 4 5.55228 4 5V4H3C2.44772 4 2 4.44772 2 5V19C2 19.5523 2.44771 20 3 20H15C15.5523 20 16 19.5523 16 19V5C16 4.44772 15.5523 4 15 4H14V5C14 5.55228 13.5523 6 13 6C12.4477 6 12 5.55228 12 5ZM18 19C18 20.6569 16.6569 22 15 22H3C1.34315 22 0 20.6569 0 19V5C0 3.34315 1.34315 2 3 2H4V1C4 0.447715 4.44772 0 5 0C5.55228 0 6 0.447715 6 1V2H8V1C8 0.447715 8.44772 0 9 0C9.55228 0 10 0.447715 10 1V2H12V1C12 0.447715 12.4477 0 13 0C13.5523 0 14 0.447715 14 1V2H15C16.6569 2 18 3.34315 18 5V19Z" fill="var(--fill-0, #FDFDFD)"/>
</svg>
