<svg preserveAspectRatio="none" width="100%" height="100%" overflow="visible" style="display: block;" viewBox="0 0 21.5862 21.5858" fill="none" xmlns="http://www.w3.org/2000/svg">
<path id="vector" d="M18.0003 12.414L12.4144 17.9999L14.0003 19.5858L19.5862 13.9999L18.0003 12.414ZM11.0003 9.99989C11.0003 9.4476 10.5526 8.99989 10.0003 8.99989C9.448 8.99989 9.00029 9.4476 9.00029 9.99989C9.00029 10.5522 9.448 10.9999 10.0003 10.9999C10.5526 10.9999 11.0003 10.5522 11.0003 9.99989ZM21.5862 13.9999C21.5862 14.5302 21.3752 15.0389 21.0003 15.414L15.4144 20.9999C15.0393 21.3748 14.5306 21.5858 14.0003 21.5858C13.47 21.5858 12.9613 21.3748 12.5862 20.9999L11.0003 19.4139C10.6253 19.0389 10.4144 18.5302 10.4144 17.9999C10.4144 17.9012 10.4235 17.8034 10.4378 17.7069L4.92998 16.6054C4.55603 16.5305 4.21077 16.3501 3.93584 16.0858C3.6656 15.8259 3.47444 15.4951 3.3831 15.1317V15.1327L0.0608359 2.48915C0.0591671 2.48279 0.0574964 2.476 0.0559531 2.46961C-0.0244713 2.13671 -0.0181195 1.78859 0.0745078 1.45887C0.167278 1.12892 0.343871 0.828181 0.586227 0.585826C0.828582 0.34347 1.12932 0.166877 1.45927 0.0741069C1.74797 -0.00699719 2.0507 -0.021349 2.34502 0.0301616L2.47002 0.0555522L2.48955 0.060435L15.1331 3.3827H15.1321C15.4955 3.47404 15.8263 3.6652 16.0862 3.93544C16.3505 4.21036 16.5309 4.55563 16.6058 4.92958L17.7073 10.4374C17.8038 10.4231 17.9016 10.414 18.0003 10.414C18.5306 10.414 19.0393 10.6249 19.4144 10.9999L21.0003 12.5858C21.3752 12.9609 21.5862 13.4696 21.5862 13.9999ZM13.0003 9.99989C13.0003 11.6567 11.6571 12.9999 10.0003 12.9999C8.34343 12.9999 7.00029 11.6567 7.00029 9.99989C7.00029 9.53712 7.10808 9.10026 7.29521 8.70887L2.5042 3.91786L5.31767 14.6249L5.32255 14.6444L11.6712 15.914L15.9144 11.6708L14.6448 5.32215C14.6383 5.32059 14.6317 5.31896 14.6253 5.31727L3.91826 2.50379L8.70927 7.29481C9.10067 7.10768 9.53752 6.99989 10.0003 6.99989C11.6571 6.99989 13.0003 8.34303 13.0003 9.99989Z" fill="var(--fill-0, #FDFDFD)"/>
</svg>
