<svg preserveAspectRatio="none" width="100%" height="100%" overflow="visible" style="display: block;" viewBox="0 0 18 22" fill="none" xmlns="http://www.w3.org/2000/svg">
<path id="vector" d="M0 19V3C0 2.20435 0.316297 1.44152 0.878906 0.878906C1.44152 0.316297 2.20435 0 3 0H12L12.0986 0.00488281C12.3276 0.0275729 12.5429 0.128826 12.707 0.292969L17.707 5.29297C17.8946 5.48051 18 5.73478 18 6V19C18 19.7957 17.6837 20.5585 17.1211 21.1211C16.5585 21.6837 15.7957 22 15 22H3C2.20435 22 1.44152 21.6837 0.878906 21.1211C0.316297 20.5585 0 19.7956 0 19ZM13 16C13.5523 16 14 16.4477 14 17C14 17.5523 13.5523 18 13 18H9C8.44772 18 8 17.5523 8 17C8 16.4477 8.44772 16 9 16H13ZM4.29297 10.293C4.68349 9.90244 5.31651 9.90244 5.70703 10.293L7.70703 12.293C8.09756 12.6835 8.09756 13.3165 7.70703 13.707L5.70703 15.707C5.31651 16.0976 4.68349 16.0976 4.29297 15.707C3.90244 15.3165 3.90244 14.6835 4.29297 14.293L5.58594 13L4.29297 11.707C3.90244 11.3165 3.90244 10.6835 4.29297 10.293ZM12 5C12 5.26522 12.1054 5.51949 12.293 5.70703C12.4805 5.89457 12.7348 6 13 6H15.5859L12 2.41406V5ZM2 19C2 19.2652 2.10543 19.5195 2.29297 19.707C2.48051 19.8946 2.73478 20 3 20H15C15.2652 20 15.5195 19.8946 15.707 19.707C15.8946 19.5195 16 19.2652 16 19V8H13C12.2044 8 11.4415 7.6837 10.8789 7.12109C10.3163 6.55848 10 5.79565 10 5V2H3C2.73478 2 2.48051 2.10543 2.29297 2.29297C2.10543 2.48051 2 2.73478 2 3V19Z" fill="var(--fill-0, #FDFDFD)"/>
</svg>
