<svg width="24" height="24" viewBox="0 0 24 24" fill="none" xmlns="http://www.w3.org/2000/svg">
<path d="M14.2198 1.0768C14.8216 0.957132 15.4427 0.97758 16.0353 1.13637C16.6279 1.29518 17.1765 1.58828 17.6378 1.99281C18.0989 2.39731 18.4607 2.9027 18.6954 3.46938C18.8191 3.76803 18.9049 4.07963 18.9532 4.39711C19.4186 4.59453 19.8531 4.86074 20.2404 5.19008C20.8182 5.68166 21.2769 6.29882 21.5812 6.99379C21.8854 7.68874 22.028 8.44381 21.9972 9.2018C21.977 9.69934 21.8801 10.1888 21.7159 10.6559C22.0935 11.0754 22.4004 11.5581 22.6193 12.0866C23.0404 13.1033 23.114 14.2306 22.8292 15.2936C22.5444 16.3566 21.9171 17.2964 21.0441 17.9664C21.0292 17.9779 21.0132 17.9884 20.9982 17.9996C20.9978 18.4648 20.934 18.9285 20.8048 19.3776C20.6159 20.0344 20.2948 20.6458 19.8605 21.1735C19.4261 21.7011 18.8877 22.1343 18.2794 22.4459C17.6713 22.7574 17.0052 22.9408 16.3234 22.985C15.6415 23.0292 14.9579 22.9331 14.3146 22.7028C13.6711 22.4724 13.082 22.1122 12.5831 21.6452C12.3692 21.4449 12.1749 21.2261 12.0001 20.9928C11.8253 21.2261 11.631 21.4449 11.4171 21.6452C10.9183 22.1122 10.329 22.4724 9.68567 22.7028C9.04223 22.9332 8.3579 23.0293 7.6759 22.985C6.99401 22.9407 6.32801 22.7575 5.71985 22.4459C5.11171 22.1344 4.57407 21.701 4.13977 21.1735C3.70541 20.6458 3.38339 20.0344 3.19446 19.3776C3.06533 18.9286 3.00148 18.4647 3.0011 17.9996C2.98622 17.9885 2.97093 17.9778 2.95617 17.9664C2.08303 17.2964 1.4549 16.3567 1.17004 15.2936C0.885297 14.2306 0.959865 13.1033 1.38098 12.0866C1.59979 11.5583 1.90496 11.0744 2.28235 10.6549C2.11851 10.1883 2.02324 9.69884 2.00305 9.2018C1.97226 8.44378 2.11482 7.68876 2.41906 6.99379C2.72331 6.29883 3.18108 5.68165 3.75891 5.19008C4.14606 4.86072 4.58078 4.59457 5.04602 4.39711C5.09441 4.07957 5.1811 3.76809 5.30481 3.46938C5.53954 2.90264 5.90128 2.39733 6.36242 1.99281C6.82372 1.58825 7.3723 1.29517 7.96496 1.13637C8.55758 0.977597 9.17866 0.957101 9.78039 1.0768C10.3819 1.19647 10.948 1.45251 11.4347 1.82582C11.6407 1.9839 11.8295 2.16251 12.0001 2.3561C12.1707 2.16256 12.3586 1.98387 12.5646 1.82582C13.0513 1.45231 13.6181 1.1965 14.2198 1.0768ZM11.0001 4.99965C11.0001 4.6929 10.9297 4.38994 10.7941 4.11488C10.6584 3.83981 10.4612 3.59947 10.2179 3.41274C9.97451 3.22597 9.69066 3.09759 9.38977 3.03774C9.08907 2.978 8.77868 2.98868 8.48254 3.06801C8.18638 3.14737 7.91233 3.29364 7.68176 3.49574C7.45121 3.69794 7.26986 3.95073 7.15246 4.23402C7.03508 4.51745 6.98396 4.8244 7.00403 5.13051C7.0241 5.43656 7.11436 5.73403 7.2677 5.99965C7.54381 6.47783 7.38052 7.08962 6.90246 7.36586C6.42418 7.64203 5.81242 7.47793 5.53625 6.99965C5.44766 6.84622 5.37102 6.68697 5.30383 6.52406C5.21795 6.58289 5.13445 6.64576 5.05481 6.71352C4.70821 7.00839 4.43363 7.3787 4.2511 7.79555C4.06855 8.21253 3.9836 8.66593 4.00207 9.12074C4.00776 9.26071 4.02299 9.3997 4.04797 9.53676C4.37606 9.55284 4.68986 9.73017 4.86633 10.0358C5.14233 10.514 4.97833 11.1259 4.50012 11.402C3.92823 11.7322 3.48133 12.2421 3.22863 12.8522C2.97605 13.4622 2.93181 14.1383 3.10266 14.776C3.27358 15.4139 3.65006 15.9775 4.17395 16.3795C4.69785 16.7816 5.33974 16.9996 6.00012 16.9997C6.55228 16.9997 7.00005 17.4475 7.00012 17.9996C7.00009 18.5519 6.5523 18.9996 6.00012 18.9996C5.71319 18.9996 5.42836 18.9738 5.14856 18.9254C5.26457 19.2812 5.44553 19.6126 5.68371 19.902C5.9443 20.2185 6.26705 20.4787 6.63196 20.6657C6.99691 20.8526 7.39658 20.9624 7.80578 20.9889C8.21484 21.0154 8.62492 20.9581 9.01086 20.82C9.39691 20.6817 9.75058 20.4654 10.0499 20.1852C10.3493 19.9049 10.5887 19.5662 10.7521 19.1901C10.9152 18.8143 10.9996 18.4092 11.0001 17.9996V13.0797C10.4902 13.4757 9.90793 13.7762 9.28039 13.9596C8.75046 14.1144 8.19526 13.8107 8.04016 13.2809C7.8852 12.7508 8.18974 12.1946 8.71985 12.0397C9.37736 11.8474 9.95529 11.4471 10.3663 10.8991C10.7259 10.4196 10.9409 9.8494 10.9894 9.25551L11.0001 8.99965V4.99965ZM13.0001 8.99965L13.0109 9.25551C13.0594 9.84944 13.2743 10.4195 13.6339 10.8991C14.045 11.4472 14.6228 11.8474 15.2804 12.0397C15.8105 12.1946 16.115 12.7508 15.9601 13.2809C15.805 13.8107 15.2497 14.1143 14.7198 13.9596C14.0924 13.7762 13.51 13.4757 13.0001 13.0797V17.9987L13.004 18.152C13.0227 18.5094 13.1053 18.861 13.2482 19.1901C13.4114 19.5661 13.6502 19.905 13.9493 20.1852C14.2486 20.4654 14.6024 20.6817 14.9884 20.82C15.3745 20.9582 15.7853 21.0155 16.1945 20.9889C16.6036 20.9623 17.0034 20.8526 17.3683 20.6657C17.7331 20.4787 18.056 20.2185 18.3165 19.902C18.5546 19.6127 18.7347 19.281 18.8507 18.9254C18.5711 18.9737 18.2868 18.9996 18.0001 18.9996C17.4478 18.9997 17.0001 18.5519 17.0001 17.9996C17.0002 17.4474 17.4479 16.9997 18.0001 16.9997C18.6604 16.9996 19.3024 16.7815 19.8263 16.3795C20.3501 15.9775 20.7267 15.4138 20.8976 14.776C21.0684 14.1383 21.0241 13.4621 20.7716 12.8522C20.5189 12.2421 20.0719 11.7322 19.5001 11.402C19.0219 11.1258 18.8578 10.5141 19.1339 10.0358C19.3101 9.73068 19.6228 9.55335 19.9503 9.53676C19.9753 9.3996 19.9925 9.26082 19.9982 9.12074C20.0166 8.66593 19.9317 8.21253 19.7491 7.79555C19.5666 7.37863 19.2911 7.00843 18.9445 6.71352C18.8648 6.64574 18.7814 6.5829 18.6954 6.52406C18.6283 6.68684 18.5525 6.84634 18.464 6.99965C18.1878 7.47793 17.5761 7.64203 17.0978 7.36586C16.6196 7.08969 16.4555 6.47788 16.7316 5.99965C16.885 5.73398 16.9752 5.43663 16.9952 5.13051C17.0153 4.82438 16.9652 4.51746 16.8478 4.23402C16.7304 3.9507 16.5491 3.69796 16.3185 3.49574C16.0879 3.2936 15.8139 3.14739 15.5177 3.06801C15.2214 2.98861 14.9104 2.97788 14.6095 3.03774C14.3087 3.0976 14.0257 3.22604 13.7823 3.41274C13.539 3.59946 13.3418 3.83981 13.2062 4.11488C13.1044 4.32131 13.039 4.54353 13.0128 4.77113L13.0001 4.99965V8.99965Z" fill="#FDFDFD"/>
</svg>
