<svg width="24" height="24" viewBox="0 0 24 24" fill="none" xmlns="http://www.w3.org/2000/svg">
<path d="M19 13.414L13.414 18.9999L15 20.5858L20.5859 14.9999L19 13.414ZM12 10.9999C12 10.4476 11.5523 9.99989 11 9.99989C10.4477 9.99989 9.99998 10.4476 9.99998 10.9999C9.99998 11.5522 10.4477 11.9999 11 11.9999C11.5523 11.9999 12 11.5522 12 10.9999ZM22.5859 14.9999C22.5859 15.5302 22.3749 16.0389 22 16.414L16.414 21.9999C16.039 22.3748 15.5303 22.5858 15 22.5858C14.4697 22.5858 13.961 22.3748 13.5859 21.9999L12 20.4139C11.625 20.0389 11.414 19.5302 11.414 18.9999C11.4141 18.9012 11.4232 18.8034 11.4375 18.7069L5.92967 17.6054C5.55572 17.5305 5.21046 17.3501 4.93553 17.0858C4.66529 16.8259 4.47413 16.4951 4.3828 16.1317V16.1327L1.06053 3.48915C1.05886 3.48279 1.05719 3.476 1.05565 3.46961C0.975224 3.13671 0.981575 2.78859 1.0742 2.45887C1.16697 2.12892 1.34357 1.82818 1.58592 1.58583C1.82828 1.34347 2.12902 1.16688 2.45897 1.07411C2.74766 0.993003 3.05039 0.978651 3.34471 1.03016L3.46971 1.05555L3.48924 1.06044L16.1328 4.3827H16.1318C16.4952 4.47404 16.826 4.6652 17.0859 4.93544C17.3502 5.21036 17.5306 5.55563 17.6055 5.92958L18.707 11.4374C18.8035 11.4231 18.9013 11.414 19 11.414C19.5303 11.414 20.039 11.6249 20.414 11.9999L22 13.5858C22.3749 13.9609 22.5859 14.4696 22.5859 14.9999ZM14 10.9999C14 12.6567 12.6568 13.9999 11 13.9999C9.34313 13.9999 7.99998 12.6567 7.99998 10.9999C7.99998 10.5371 8.10777 10.1003 8.29491 9.70887L3.50389 4.91786L6.31737 15.6249L6.32225 15.6444L12.6709 16.914L16.914 12.6708L15.6445 6.32215C15.638 6.32059 15.6314 6.31896 15.625 6.31727L4.91795 3.50379L9.70897 8.29481C10.1004 8.10768 10.5372 7.99989 11 7.99989C12.6568 7.99989 14 9.34303 14 10.9999Z" fill="#FDFDFD"/>
</svg>
