<svg preserveAspectRatio="none" width="100%" height="100%" overflow="visible" style="display: block;" viewBox="0 0 21.9996 21.9955" fill="none" xmlns="http://www.w3.org/2000/svg">
<path id="vector" d="M13.2198 0.0767982C13.8216 -0.0428681 14.4427 -0.0224204 15.0353 0.136368C15.6279 0.295179 16.1765 0.588276 16.6378 0.992814C17.0989 1.39731 17.4607 1.9027 17.6954 2.46938C17.8191 2.76803 17.9049 3.07963 17.9532 3.39711C18.4186 3.59453 18.8531 3.86074 19.2404 4.19008C19.8182 4.68166 20.2769 5.29882 20.5812 5.99379C20.8854 6.68874 21.028 7.44381 20.9972 8.2018C20.977 8.69934 20.8801 9.18883 20.7159 9.6559C21.0935 10.0754 21.4004 10.5581 21.6193 11.0866C22.0404 12.1033 22.114 13.2306 21.8292 14.2936C21.5444 15.3566 20.9171 16.2964 20.0441 16.9664C20.0292 16.9779 20.0132 16.9884 19.9982 16.9996C19.9978 17.4648 19.934 17.9285 19.8048 18.3776C19.6159 19.0344 19.2948 19.6458 18.8605 20.1735C18.4261 20.7011 17.8877 21.1343 17.2794 21.4459C16.6713 21.7574 16.0052 21.9408 15.3234 21.985C14.6415 22.0292 13.9579 21.9331 13.3146 21.7028C12.6711 21.4724 12.082 21.1122 11.5831 20.6452C11.3692 20.4449 11.1749 20.2261 11.0001 19.9928C10.8253 20.2261 10.631 20.4449 10.4171 20.6452C9.91825 21.1122 9.32902 21.4724 8.68567 21.7028C8.04223 21.9332 7.3579 22.0293 6.6759 21.985C5.99401 21.9407 5.32801 21.7575 4.71985 21.4459C4.11171 21.1344 3.57407 20.701 3.13977 20.1735C2.70541 19.6458 2.38339 19.0344 2.19446 18.3776C2.06533 17.9286 2.00148 17.4647 2.0011 16.9996C1.98622 16.9885 1.97093 16.9778 1.95617 16.9664C1.08303 16.2964 0.454903 15.3567 0.170041 14.2936C-0.114703 13.2306 -0.040135 12.1033 0.380979 11.0866C0.599792 10.5583 0.904963 10.0744 1.28235 9.65492C1.11851 9.18828 1.02324 8.69884 1.00305 8.2018C0.972262 7.44378 1.11482 6.68876 1.41906 5.99379C1.72331 5.29883 2.18108 4.68165 2.75891 4.19008C3.14606 3.86072 3.58078 3.59457 4.04602 3.39711C4.09441 3.07957 4.1811 2.76809 4.30481 2.46938C4.53954 1.90264 4.90128 1.39733 5.36242 0.992814C5.82372 0.588254 6.3723 0.295173 6.96496 0.136368C7.55758 -0.0224034 8.17866 -0.0428989 8.78039 0.0767982C9.38195 0.196469 9.94805 0.45251 10.4347 0.825822C10.6407 0.983904 10.8295 1.16251 11.0001 1.3561C11.1707 1.16256 11.3586 0.983871 11.5646 0.825822C12.0513 0.452307 12.6181 0.196502 13.2198 0.0767982ZM10.0001 3.99965C10.0001 3.6929 9.9297 3.38994 9.79406 3.11488C9.65841 2.83981 9.4612 2.59947 9.21789 2.41274C8.97451 2.22597 8.69066 2.09759 8.38977 2.03774C8.08907 1.978 7.77868 1.98868 7.48254 2.06801C7.18638 2.14737 6.91233 2.29364 6.68176 2.49574C6.45121 2.69794 6.26986 2.95073 6.15246 3.23402C6.03508 3.51745 5.98396 3.8244 6.00403 4.13051C6.0241 4.43656 6.11436 4.73403 6.2677 4.99965C6.54381 5.47783 6.38052 6.08962 5.90246 6.36586C5.42418 6.64203 4.81242 6.47793 4.53625 5.99965C4.44766 5.84622 4.37102 5.68697 4.30383 5.52406C4.21795 5.58289 4.13445 5.64576 4.05481 5.71352C3.70821 6.00839 3.43363 6.3787 3.2511 6.79555C3.06855 7.21253 2.9836 7.66593 3.00207 8.12074C3.00776 8.26071 3.02299 8.3997 3.04797 8.53676C3.37606 8.55284 3.68986 8.73017 3.86633 9.03578C4.14233 9.51403 3.97833 10.1259 3.50012 10.402C2.92823 10.7322 2.48133 11.2421 2.22863 11.8522C1.97605 12.4622 1.93181 13.1383 2.10266 13.776C2.27358 14.4139 2.65006 14.9775 3.17395 15.3795C3.69785 15.7816 4.33974 15.9996 5.00012 15.9997C5.55228 15.9997 6.00005 16.4475 6.00012 16.9996C6.00009 17.5519 5.5523 17.9996 5.00012 17.9996C4.71319 17.9996 4.42836 17.9738 4.14856 17.9254C4.26457 18.2812 4.44553 18.6126 4.68371 18.902C4.9443 19.2185 5.26705 19.4787 5.63196 19.6657C5.99691 19.8526 6.39658 19.9624 6.80578 19.9889C7.21484 20.0154 7.62492 19.9581 8.01086 19.82C8.39691 19.6817 8.75058 19.4654 9.04992 19.1852C9.34927 18.9049 9.58873 18.5662 9.75207 18.1901C9.91517 17.8143 9.99957 17.4092 10.0001 16.9996V12.0797C9.49016 12.4757 8.90793 12.7762 8.28039 12.9596C7.75046 13.1144 7.19526 12.8107 7.04016 12.2809C6.8852 11.7508 7.18975 11.1946 7.71985 11.0397C8.37736 10.8474 8.95529 10.4471 9.36633 9.89906C9.72585 9.41956 9.94086 8.8494 9.98938 8.25551L10.0001 7.99965V3.99965ZM12.0001 7.99965L12.0109 8.25551C12.0594 8.84944 12.2743 9.41954 12.6339 9.89906C13.045 10.4472 13.6228 10.8474 14.2804 11.0397C14.8105 11.1946 15.115 11.7508 14.9601 12.2809C14.805 12.8107 14.2497 13.1143 13.7198 12.9596C13.0924 12.7762 12.51 12.4757 12.0001 12.0797V16.9987L12.004 17.152C12.0227 17.5094 12.1053 17.861 12.2482 18.1901C12.4114 18.5661 12.6502 18.905 12.9493 19.1852C13.2486 19.4654 13.6024 19.6817 13.9884 19.82C14.3745 19.9582 14.7853 20.0155 15.1945 19.9889C15.6036 19.9623 16.0034 19.8526 16.3683 19.6657C16.7331 19.4787 17.056 19.2185 17.3165 18.902C17.5546 18.6127 17.7347 18.281 17.8507 17.9254C17.5711 17.9737 17.2868 17.9996 17.0001 17.9996C16.4478 17.9997 16.0001 17.5519 16.0001 16.9996C16.0002 16.4474 16.4479 15.9997 17.0001 15.9997C17.6604 15.9996 18.3024 15.7815 18.8263 15.3795C19.3501 14.9775 19.7267 14.4138 19.8976 13.776C20.0684 13.1383 20.0241 12.4621 19.7716 11.8522C19.5189 11.2421 19.0719 10.7322 18.5001 10.402C18.0219 10.1258 17.8578 9.51405 18.1339 9.03578C18.3101 8.73068 18.6228 8.55335 18.9503 8.53676C18.9753 8.3996 18.9925 8.26082 18.9982 8.12074C19.0166 7.66593 18.9317 7.21253 18.7491 6.79555C18.5666 6.37863 18.2911 6.00843 17.9445 5.71352C17.8648 5.64574 17.7814 5.5829 17.6954 5.52406C17.6283 5.68684 17.5525 5.84634 17.464 5.99965C17.1878 6.47793 16.5761 6.64203 16.0978 6.36586C15.6196 6.08969 15.4555 5.47788 15.7316 4.99965C15.885 4.73398 15.9752 4.43663 15.9952 4.13051C16.0153 3.82438 15.9652 3.51746 15.8478 3.23402C15.7304 2.9507 15.5491 2.69796 15.3185 2.49574C15.0879 2.2936 14.8139 2.14739 14.5177 2.06801C14.2214 1.98861 13.9104 1.97788 13.6095 2.03774C13.3087 2.0976 13.0257 2.22604 12.7823 2.41274C12.539 2.59946 12.3418 2.83981 12.2062 3.11488C12.1044 3.32131 12.039 3.54353 12.0128 3.77113L12.0001 3.99965V7.99965Z" fill="var(--fill-0, #FDFDFD)"/>
</svg>
