<svg preserveAspectRatio="none" width="100%" height="100%" overflow="visible" style="display: block;" viewBox="0 0 16 23" fill="none" xmlns="http://www.w3.org/2000/svg">
<path id="vector" d="M7 16H4.5C3.83696 16 3.20126 16.2636 2.73242 16.7324C2.26358 17.2013 2 17.837 2 18.5C2 19.163 2.26358 19.7987 2.73242 20.2676C3.20126 20.7364 3.83696 21 4.5 21C5.16304 21 5.79874 20.7364 6.26758 20.2676C6.73642 19.7987 7 19.163 7 18.5V16ZM13.9883 11.2549C13.9642 11.0106 13.9038 10.7705 13.8096 10.543C13.6839 10.2398 13.4996 9.96449 13.2676 9.73242C13.0355 9.50036 12.7602 9.31606 12.457 9.19043C12.1537 9.06479 11.8283 9 11.5 9C11.1717 9 10.8463 9.06479 10.543 9.19043C10.2398 9.31606 9.96449 9.50036 9.73242 9.73242C9.50036 9.96449 9.31606 10.2398 9.19043 10.543C9.06479 10.8463 9 11.1717 9 11.5C9 11.8283 9.06479 12.1537 9.19043 12.457C9.31606 12.7602 9.50036 13.0355 9.73242 13.2676C9.96449 13.4996 10.2398 13.6839 10.543 13.8096C10.8463 13.9352 11.1717 14 11.5 14C11.8283 14 12.1537 13.9352 12.457 13.8096C12.7602 13.6839 13.0355 13.4996 13.2676 13.2676C13.4996 13.0355 13.6839 12.7602 13.8096 12.457C13.9352 12.1537 14 11.8283 14 11.5L13.9883 11.2549ZM2 11.5C2 12.163 2.26358 12.7987 2.73242 13.2676C3.20126 13.7364 3.83696 14 4.5 14H7V9H4.5C3.83696 9 3.20126 9.26358 2.73242 9.73242C2.26358 10.2013 2 10.837 2 11.5ZM14 4.5C14 4.1717 13.9352 3.84628 13.8096 3.54297C13.6839 3.23978 13.4996 2.96449 13.2676 2.73242C13.0355 2.50036 12.7602 2.31606 12.457 2.19043C12.2295 2.09617 11.9894 2.03578 11.7451 2.01172L11.5 2H9V7H11.5C11.8283 7 12.1537 6.93521 12.457 6.80957C12.7602 6.68394 13.0355 6.49964 13.2676 6.26758C13.4996 6.03551 13.6839 5.76022 13.8096 5.45703C13.9352 5.15372 14 4.8283 14 4.5ZM2 4.5C2 5.16304 2.26358 5.79874 2.73242 6.26758C3.20126 6.73642 3.83696 7 4.5 7H7V2H4.5C3.83696 2 3.20126 2.26358 2.73242 2.73242C2.26358 3.20126 2 3.83696 2 4.5ZM16 4.5C16 5.09086 15.8833 5.67579 15.6572 6.22168C15.4311 6.76764 15.0995 7.26378 14.6816 7.68164C14.5688 7.79443 14.4498 7.90017 14.3262 8C14.4498 8.09983 14.5688 8.20557 14.6816 8.31836C15.0995 8.73622 15.4311 9.23236 15.6572 9.77832C15.8833 10.3242 16 10.9091 16 11.5L15.9941 11.7217C15.9687 12.2368 15.855 12.7442 15.6572 13.2217C15.4311 13.7676 15.0995 14.2638 14.6816 14.6816C14.2638 15.0995 13.7676 15.4311 13.2217 15.6572C12.6758 15.8833 12.0909 16 11.5 16C10.9091 16 10.3242 15.8833 9.77832 15.6572C9.50529 15.5441 9.24454 15.4046 9 15.2412V18.5C9 19.6935 8.52555 20.8377 7.68164 21.6816C6.83773 22.5256 5.69347 23 4.5 23C3.30653 23 2.16227 22.5256 1.31836 21.6816C0.474446 20.8377 0 19.6935 0 18.5C0 17.3065 0.474446 16.1623 1.31836 15.3184C1.43128 15.2054 1.54976 15.0994 1.67285 15C1.54976 14.9006 1.43128 14.7946 1.31836 14.6816C0.474446 13.8377 0 12.6935 0 11.5C0 10.3065 0.474446 9.16227 1.31836 8.31836C1.43128 8.20544 1.54976 8.09943 1.67285 8C1.54976 7.90057 1.43128 7.79456 1.31836 7.68164C0.474446 6.83773 0 5.69347 0 4.5C0 3.30653 0.474446 2.16227 1.31836 1.31836C2.16227 0.474446 3.30653 0 4.5 0H11.5L11.7217 0.00585938C12.2368 0.0312677 12.7442 0.145016 13.2217 0.342773C13.7676 0.568919 14.2638 0.900495 14.6816 1.31836C15.0995 1.73622 15.4311 2.23236 15.6572 2.77832C15.8833 3.32421 16 3.90914 16 4.5Z" fill="var(--fill-0, #FDFDFD)"/>
</svg>
