<svg width="28" height="28" viewBox="0 0 28 28" fill="none" xmlns="http://www.w3.org/2000/svg">
<path d="M15.4293 1.19317C15.7709 1.12998 16.1227 1.16938 16.4398 1.30596L16.5731 1.3709L16.7007 1.4461C16.9488 1.60723 17.1516 1.82884 17.2909 2.08981L17.3559 2.22311L17.4083 2.36211C17.517 2.68942 17.5265 3.04258 17.4345 3.37725C17.4303 3.39234 17.4267 3.40791 17.4219 3.42282L15.182 10.4456L15.1627 10.5003H23.3327C23.7731 10.4994 24.205 10.6228 24.578 10.8569C24.9519 11.0916 25.2511 11.4282 25.4416 11.8265C25.6322 12.2247 25.7065 12.6686 25.6547 13.1071C25.6029 13.5456 25.427 13.9604 25.1488 14.3034C25.1271 14.3301 25.1045 14.3561 25.0805 14.3808L13.53 26.2811L13.5289 26.2799C13.2737 26.5528 12.9392 26.7393 12.5707 26.8074C12.1804 26.8796 11.7769 26.8169 11.4268 26.6297C11.0768 26.4425 10.8007 26.1411 10.6441 25.7763C10.4877 25.4117 10.4603 25.0048 10.5655 24.6222L10.578 24.5766L12.8179 17.5538L12.8373 17.5003H4.66608V17.4992C4.2261 17.4998 3.79464 17.3765 3.42194 17.1425C3.04824 16.9079 2.74889 16.5721 2.55833 16.1741C2.36774 15.7758 2.29346 15.3309 2.34528 14.8924C2.39715 14.454 2.57304 14.0389 2.85114 13.6961C2.87279 13.6694 2.89557 13.6433 2.9195 13.6186L14.47 1.71953C14.7251 1.44648 15.0606 1.26136 15.4293 1.19317ZM4.6695 15.167H12.8327C13.2091 15.1663 13.5801 15.2565 13.914 15.4301C14.2487 15.6043 14.5369 15.8565 14.7525 16.1661C14.9682 16.4759 15.1052 16.8342 15.1524 17.2086C15.1971 17.564 15.1554 17.9234 15.0385 18.2614L15.0419 18.2625L13.5642 22.895L23.3305 12.8336H15.1661V12.8325C14.7902 12.833 14.4195 12.7439 14.086 12.5704C13.7512 12.3963 13.4631 12.143 13.2475 11.8333C13.0319 11.5237 12.8948 11.1662 12.8476 10.792C12.8027 10.4361 12.8431 10.0754 12.9603 9.73695H12.9581L14.4346 5.10332L4.6695 15.167Z" fill="#E0123F"/>
</svg>
